<svg xmlns="http://www.w3.org/2000/svg" xmlns:xlink="http://www.w3.org/1999/xlink" version="1.1" x="0px" y="0px" viewBox="0 0 100 125" enable-background="new 0 0 100 100" xml:space="preserve"><g><path d="M50.001,12.945c-13.861,0-25.137,11.276-25.137,25.137c0,4.243,1.078,8.436,3.119,12.134   C28.1,50.428,46.607,82.64,48.716,86.313c0.265,0.46,0.755,0.741,1.285,0.741c0.528,0,1.019-0.281,1.282-0.741l20.735-36.103   c2.039-3.694,3.118-7.889,3.118-12.129C75.137,24.221,63.86,12.945,50.001,12.945z M69.439,48.758L49.999,82.604   c-4.488-7.815-19.208-33.437-19.426-33.823c-1.797-3.257-2.749-6.957-2.749-10.7c0-12.228,9.948-22.176,22.177-22.176   c12.225,0,22.175,9.948,22.175,22.176C72.176,41.822,71.224,45.522,69.439,48.758z"/><circle cx="49.999" cy="37.542" r="7.981"/></g><text x="0" y="115" fill="#000000" font-size="5px" font-weight="bold" font-family="'Helvetica Neue', Helvetica, Arial-Unicode, Arial, Sans-serif"></text><text x="0" y="120" fill="#000000" font-size="5px" font-weight="bold" font-family="'Helvetica Neue', Helvetica, Arial-Unicode, Arial, Sans-serif"></text></svg>