<svg xmlns="http://www.w3.org/2000/svg" xmlns:xlink="http://www.w3.org/1999/xlink" version="1.1" x="0px" y="0px" viewBox="-255 347 100 125" style="enable-background:new -255 347 100 100;" xml:space="preserve"><style type="text/css">
	.st0{enable-background:new    ;}
	.st1{fill:#FFFFFF;}
	.st2{fill:none;stroke:#FFFFFF;stroke-miterlimit:10;}
	.st3{fill:none;}
</style><g><rect x="-447" y="347" width="185" height="99"/><rect x="-255" y="311" width="100" height="30"/><text transform="matrix(1 0 0 1 -189 327.5)" class="st1" style="" font-family="'Helvetica'" font-size="2.4px">http://thenounproject.com</text><text transform="matrix(1 0 0 1 -247.834 322.5)" class="st1" style="" font-family="'Helvetica-Bold'" font-size="6.1578px">The Noun Project</text><text transform="matrix(1 0 0 1 -246.714 327.3)" class="st1" style="" font-family="'Helvetica-Bold'" font-size="4px">Icon Template</text><text transform="matrix(1 0 0 1 -433.5 357.5)" class="st1" style="" font-family="'Helvetica-Bold'" font-size="6.1578px">Reminders</text><line class="st2" x1="-247" y1="332.5" x2="-237" y2="332.5"/><line class="st2" x1="-434" y1="363.5" x2="-417" y2="363.5"/><g><g><g><rect x="-425.8" y="378.3" class="st1" width="8.7" height="8.6"/><path class="st1" d="M-419.5,389.3h4.7v-4.7h-4.7V389.3z M-414.3,389.7h-5.6v-5.6h5.6V389.7L-414.3,389.7z M-421.2,391.1h8.3      v-8.2h-8.3V391.1L-421.2,391.1z M-412.5,391.5h-9.2v-9.1h9.2V391.5L-412.5,391.5z"/><polygon class="st1" points="-421.1,391.1 -421.3,391 -413,382.8 -412.9,382.9     "/></g></g></g><rect x="-434" y="405" class="st3" width="35" height="32.5"/><text transform="matrix(1 0 0 1 -434 407.1572)" class="st1" style="" font-family="'Helvetica-Bold'" font-size="3px">Strokes</text><text transform="matrix(1 0 0 1 -434 412.1572)" class="st1" style="" font-family="'Helvetica'" font-size="2.4px">Try to keep strokes at 4px</text><text transform="matrix(1 0 0 1 -434 417.1572)" class="st1" style="" font-family="'Helvetica'" font-size="2.4px">Minimum stroke weight is 2px</text><text transform="matrix(1 0 0 1 -434 421.6572)" class="st1" style="" font-family="'Helvetica'" font-size="2.4px">For thicker strokes use even </text><text transform="matrix(1 0 0 1 -434 424.6572)" class="st1" style="" font-family="'Helvetica'" font-size="2.4px">numbers: 6px, 8px etc.</text><text transform="matrix(1 0 0 1 -434 429.1572)" class="st1" style="" font-family="'Helvetica-Bold'" font-size="2.4px">Remember to expand strokes </text><text transform="matrix(1 0 0 1 -434 432.1572)" class="st1" style="" font-family="'Helvetica-Bold'" font-size="2.4px">before saving as an SVG </text><rect x="-391.5" y="405" class="st3" width="35" height="32.5"/><text transform="matrix(1 0 0 1 -391.5 407.1572)" class="st1" style="" font-family="'Helvetica-Bold'" font-size="3px">Size</text><text transform="matrix(1 0 0 1 -391.5 412.1572)" class="st1" style="" font-family="'Helvetica'" font-size="2.4px">Cannot be wider or taller than </text><text transform="matrix(1 0 0 1 -391.5 415.6572)" class="st1" style="" font-family="'Helvetica'" font-size="2.4px">100px (artboard size)</text><text transform="matrix(1 0 0 1 -391.5 420.6572)" class="st1" style="" font-family="'Helvetica'" font-size="2.4px">Scale your icon to fill as much of </text><text transform="matrix(1 0 0 1 -391.5 423.6572)" class="st1" style="" font-family="'Helvetica'" font-size="2.4px">the artboard as possible</text><rect x="-349" y="405" class="st3" width="35" height="32.5"/><text transform="matrix(1 0 0 1 -349 407.1572)" class="st1" style="" font-family="'Helvetica-Bold'" font-size="3px">Ungroup</text><text transform="matrix(1 0 0 1 -349 412.1572)" class="st1" style="" font-family="'Helvetica'" font-size="2.4px">If your design has more than one </text><text transform="matrix(1 0 0 1 -349 415.1572)" class="st1" style="" font-family="'Helvetica'" font-size="2.4px">shape, make sure to ungroup</text><rect x="-305" y="405" class="st3" width="35" height="32.5"/><text transform="matrix(1 0 0 1 -305 407.1572)" class="st1" style="" font-family="'Helvetica-Bold'" font-size="3px">Save as</text><text transform="matrix(1 0 0 1 -305 412.1572)" class="st1" style="" font-family="'Helvetica'" font-size="2.4px">Save as .SVG and make sure </text><text transform="matrix(1 0 0 1 -305 415.1572)" class="st1" style="" font-family="'Helvetica'" font-size="2.4px">“Use Artboards” is checked</text><text transform="matrix(1.0074 0 0 1 -380.542 377.5933)" class="st1" style="" font-family="'Helvetica'" font-size="2.5731px">100px</text><text transform="matrix(1.0074 0 0 1 -296 386)" class="st1" style="" font-family="'Helvetica-Bold'" font-size="5.1462px">.SVG</text><rect x="-381.5" y="381.8" class="st1" width="10.3" height="10.2"/><rect x="-381.5" y="378.8" class="st1" width="0.5" height="2.3"/><rect x="-371.8" y="378.8" class="st1" width="0.5" height="2.3"/><rect x="-382" y="379.3" class="st1" width="11.2" height="0.6"/><g><rect x="-338.8" y="380.8" class="st1" width="10.3" height="10.2"/><rect x="-331.8" y="375.7" class="st1" width="3.3" height="3.3"/></g><rect x="-433.5" y="369.5" class="st2" width="30" height="30"/><rect x="-391.5" y="369.5" class="st2" width="30" height="30"/><rect x="-348.5" y="369.5" class="st2" width="30" height="30"/><rect x="-304.5" y="369.5" class="st2" width="30" height="30"/></g><g><g><path d="M-209,416.7c-24.6,0-28.9-2-32.6-9.3c-0.6-1.1-0.1-2.5,1-3c1.1-0.6,2.5-0.1,3,1c2.3,4.7,3.5,7,31.6,6.8    c7,0,28.3-0.2,32.1-4.4c0.5-0.5,0.6-1.1,0.6-1.9c-0.1-1.2,0.8-2.3,2.1-2.4c1.3,0,2.3,0.8,2.4,2.1c0.2,2.1-0.4,3.9-1.7,5.3    c-2.7,2.9-8.9,5.7-35.4,5.8C-207,416.7-208,416.7-209,416.7z"/></g><g><path d="M-206.5,402.7c-19.9,0-33.2-1.9-33.4-2c-1-0.2-1.8-1-1.9-2c-0.5-5.2-0.3-9.4,2.6-12.8c4.3-5,13.7-7.4,33.8-8.5    c18.7-1,30.9,2,36.3,9.1c4.4,5.8,2.3,12,2.2,12.3c-0.3,0.8-1,1.4-1.8,1.5C-182.6,402.1-195.6,402.7-206.5,402.7z M-237.5,396.5    c7,0.8,34,3.6,66.6-0.5c0.2-1.6,0.1-4.3-1.9-6.9c-3-4-11.1-8.4-32.4-7.2c-18.2,1-27.4,3.1-30.6,6.9    C-237.2,390.6-237.7,392.7-237.5,396.5z"/></g><g><g><path d="M-199.1,393.8c0,0-0.1,0-0.1,0c-10-0.6-13.7-8.7-14.3-12.8c-0.2-1.2,0.7-2.4,1.9-2.5c1.2-0.2,2.4,0.7,2.5,1.9     c0,0.3,1.1,6.5,7.2,8.4c-0.7-2.7-2-6-4.2-6.9c-1.2-0.5-1.7-1.8-1.2-2.9c0.5-1.2,1.8-1.7,2.9-1.2c6.3,2.6,7.4,12.5,7.5,13.6     c0.1,0.7-0.2,1.3-0.6,1.8C-197.9,393.6-198.5,393.8-199.1,393.8z"/></g><g><path d="M-217.7,394.9c0,0-0.1,0-0.1,0c-9.4-0.6-13-8.2-13.5-12.1c-0.2-1.2,0.7-2.4,1.9-2.5c1.2-0.2,2.4,0.7,2.5,1.9     c0,0.3,1,5.9,6.4,7.7c-0.6-2.4-1.8-5.3-3.8-6.1c-1.2-0.5-1.7-1.8-1.2-2.9c0.5-1.2,1.8-1.7,2.9-1.2c6,2.4,7,11.8,7.1,12.9     c0.1,0.7-0.2,1.3-0.6,1.8C-216.5,394.7-217.1,394.9-217.7,394.9z"/></g><g><path d="M-181.1,394.9c0,0-0.1,0-0.1,0c-11-0.5-13.9-9.9-13.9-14.9c0-1.2,1-2.2,2.2-2.2c1.2,0,2.2,1,2.2,2.2     c0,0.9,0.3,7.9,6.7,9.9c-0.9-3.2-2.4-6.9-4.4-7.8c-1.2-0.5-1.7-1.8-1.2-2.9c0.5-1.2,1.8-1.7,2.9-1.2c5.9,2.4,7.7,13.1,7.9,14.4     c0.1,0.7-0.1,1.3-0.6,1.8C-179.9,394.7-180.5,394.9-181.1,394.9z"/></g></g><g><path d="M-212.4,411c-0.1,0-0.3,0-0.5,0c-4.1-0.2-6.2-1.1-8.1-2c-1.8-0.8-3.3-1.4-6.7-1.3c-2.1,0.1-3.6,0.2-4.9,0.4    c-3.3,0.3-5.2,0.5-10.7-0.9c-0.2,0-0.3-0.1-0.5-0.2c-0.5-0.2-4.6-2.4-4.5-6.1c0.2-3.9,5.1-5.9,6.7-6.5c1.2-0.5,2.5,0.1,2.9,1.3    c0.5,1.2-0.1,2.5-1.3,2.9c-3.6,1.4-3.8,2.5-3.8,2.5c0,0.4,0.9,1.2,1.8,1.7c4.6,1.1,5.9,1,8.9,0.7c1.3-0.1,2.9-0.3,5.1-0.4    c4.4-0.2,6.6,0.8,8.7,1.7c1.7,0.7,3.2,1.4,6.4,1.6c3.3,0.1,4.7-0.7,6.5-1.7c1.9-1,4.2-2.2,8.4-2.3c3.7-0.1,6,0.7,7.8,1.3    c2.1,0.7,3.6,1.2,7.1,0.6c2.3-0.5,3.8-0.9,5.1-1.3c2.8-0.8,4.6-1.3,9.7-1.2c0.5-0.1,1-0.4,1.4-0.8c-0.9-0.1-2-0.4-3.2-0.9    c-1.1-0.5-1.7-1.8-1.2-2.9c0.5-1.1,1.8-1.7,2.9-1.2c2.1,0.9,3,0.5,3,0.5c0.6-0.5,1.3-0.5,2.1-0.2c0.7,0.3,1.1,1,1.3,1.8    c0.9,5-2.8,7.7-5.5,8.2c-0.2,0-0.4,0.1-0.5,0c-4.8-0.1-6.1,0.3-8.7,1c-1.4,0.4-3,0.9-5.5,1.4c-4.7,0.9-7.1,0.1-9.4-0.7    c-1.7-0.6-3.3-1.1-6.3-1.1c-3.1,0-4.6,0.8-6.3,1.8C-206,409.9-208.2,411-212.4,411z"/></g></g><text x="-255" y="462" fill="#000000" font-size="5px" font-weight="bold" font-family="'Helvetica Neue', Helvetica, Arial-Unicode, Arial, Sans-serif"></text><text x="-255" y="467" fill="#000000" font-size="5px" font-weight="bold" font-family="'Helvetica Neue', Helvetica, Arial-Unicode, Arial, Sans-serif"></text></svg>